<svg width="18" height="5" viewBox="0 0 18 5" fill="none" xmlns="http://www.w3.org/2000/svg">
<path d="M4.15385 2.07689C4.15385 0.934578 3.21923 -3.71933e-05 2.07692 -3.71933e-05C0.934615 -3.71933e-05 0 0.934578 0 2.07689C0 3.21919 0.934615 4.15381 2.07692 4.15381C3.21923 4.15381 4.15385 3.21919 4.15385 2.07689ZM6.92308 2.07689C6.92308 3.21919 7.85769 4.15381 9 4.15381C10.1423 4.15381 11.0769 3.21919 11.0769 2.07689C11.0769 0.934578 10.1423 -3.71933e-05 9 -3.71933e-05C7.85769 -3.71933e-05 6.92308 0.934578 6.92308 2.07689ZM13.8462 2.07689C13.8462 3.21919 14.7808 4.15381 15.9231 4.15381C17.0654 4.15381 18 3.21919 18 2.07689C18 0.934578 17.0654 -3.71933e-05 15.9231 -3.71933e-05C14.7808 -3.71933e-05 13.8462 0.934578 13.8462 2.07689Z" fill="#131314" fill-opacity="0.8"/>
</svg>
